<?xml version="1.0" encoding="UTF-8" standalone="no"?>
<svg
   xmlns:dc="http://purl.org/dc/elements/1.1/"
   xmlns:cc="http://creativecommons.org/ns#"
   xmlns:rdf="http://www.w3.org/1999/02/22-rdf-syntax-ns#"
   xmlns:svg="http://www.w3.org/2000/svg"
   xmlns="http://www.w3.org/2000/svg"
   id="svg8"
   version="1.1"
   viewBox="0 0 287.2446 380.94141"
   height="380.94141mm"
   width="287.2446mm">
  <defs
     id="defs2" />
  <metadata
     id="metadata5">
    <rdf:RDF>
      <cc:Work
         rdf:about="">
        <dc:format>image/svg+xml</dc:format>
        <dc:type
           rdf:resource="http://purl.org/dc/dcmitype/StillImage" />
        <dc:title></dc:title>
      </cc:Work>
    </rdf:RDF>
  </metadata>
  <g
     transform="translate(51.076775,85.453308)"
     id="layer1">
    <path
       id="path827"
       d="M -18.898809,-82.488094 V 295.48809 H 235.85714 V -4.625 l -80.50893,-80.508928 z"
       style="fill:#ffffff;fill-opacity:1;stroke:none;stroke-width:0.26458332px;stroke-linecap:butt;stroke-linejoin:miter;stroke-opacity:1" />
  </g>
  <g
     transform="translate(51.076775,85.453308)"
     id="layer2">
    <rect
       y="-58.297615"
       x="-51.026775"
       height="49.892857"
       width="142.875"
       id="rect817"
       style="opacity:1;fill:#ff2e2e;fill-opacity:1;stroke:#ffffff;stroke-width:0.1;stroke-miterlimit:4;stroke-dasharray:none;stroke-opacity:1" />
  </g>
  <g
     transform="translate(51.076775,85.453308)"
     id="layer3">
    <flowRoot
       transform="matrix(0.38784691,0,0,0.38784691,31.957742,35.930448)"
       style="font-style:normal;font-variant:normal;font-weight:bold;font-stretch:normal;font-size:133.33332825px;line-height:1.25;font-family:sans-serif;-inkscape-font-specification:'sans-serif, Bold';font-variant-ligatures:normal;font-variant-caps:normal;font-variant-numeric:normal;font-feature-settings:normal;text-align:start;letter-spacing:0px;word-spacing:0px;writing-mode:lr-tb;text-anchor:start;fill:#ffffff;fill-opacity:1;stroke:none"
       id="flowRoot819"
       xml:space="preserve"><flowRegion
         style="font-style:normal;font-variant:normal;font-weight:bold;font-stretch:normal;font-size:133.33332825px;font-family:sans-serif;-inkscape-font-specification:'sans-serif, Bold';font-variant-ligatures:normal;font-variant-caps:normal;font-variant-numeric:normal;font-feature-settings:normal;text-align:start;writing-mode:lr-tb;text-anchor:start;fill:#ffffff;fill-opacity:1"
         id="flowRegion821"><rect
           style="font-style:normal;font-variant:normal;font-weight:bold;font-stretch:normal;font-size:133.33332825px;font-family:sans-serif;-inkscape-font-specification:'sans-serif, Bold';font-variant-ligatures:normal;font-variant-caps:normal;font-variant-numeric:normal;font-feature-settings:normal;text-align:start;writing-mode:lr-tb;text-anchor:start;fill:#ffffff;fill-opacity:1"
           y="-246.05174"
           x="-180"
           height="188.57143"
           width="540"
           id="rect823" /></flowRegion><flowPara
         id="flowPara825">PDF</flowPara></flowRoot>  </g>
  <g
     transform="translate(51.076775,85.453308)"
     id="layer4">
    <path
       id="path871"
       d="M 155.34821,-85.133928 V -2.3571428 L 235.85714,-4.625 Z"
       style="fill:#e2e2e2;fill-opacity:1;stroke:#000000;stroke-width:0.26458332px;stroke-linecap:butt;stroke-linejoin:miter;stroke-opacity:1" />
    <path
       id="path927"
       d="m 43.133429,169.22894 c 10.74492,-14.10775 12.49391,-28.21549 13.42942,-42.3231 -10.08675,-4.07945 -19.97328,-36.474509 -3.66257,-35.404879 0.88537,-6.63078 2.06983,-13.3364 4.47647,-20.34759 -3.61284,-16.40971 0.43991,-17.97551 -3.25561,-21.97543 2.93314,-1.22445 5.08797,-2.91584 6.10429,-5.29039 2.95041,-2.46713 -3.85008,-3.78092 -6.91818,-5.29037 3.79972,0.66876 6.29135,-0.58728 7.32513,-0.40695 -3.36586,1.63788 -3.4811,2.28393 1.62781,2.84867 2.82438,-5.77167 2.47112,-8.40037 -1.62781,-10.58076 4.77138,-1.33888 8.78529,1.10955 12.61552,4.47646 0.95975,-1.21698 2.49981,-1.69891 4.47648,-1.6278 -0.59895,-1.48267 -2.73335,-3.97436 -1.22087,-4.06952 3.67605,6.75467 6.50521,4.32623 6.51124,3.25562 4.57357,-3.9689 8.97108,-9.19094 14.65025,-5.29038 4.885881,1.42283 10.240421,1.35432 15.871161,0.40694 6.3076,0.0992 9.80372,3.8753 12.61541,8.54601 16.45385,-8.70154 -12.48605,18.1071 8.95294,2.44171 2.9708,-0.56756 5.47842,-0.18653 5.69745,4.88343 3.93388,0.63226 7.86777,1.18952 11.80165,-1.62781 0.0979,2.88639 -0.50016,6.4688 1.62778,7.32514 11.66382,8.89105 23.40535,17.78626 -0.40695,24.8241 2.22939,5.34455 2.43462,12.41107 2.03477,20.34761 0.22348,3.20777 -0.01,5.2511 -0.81401,8.139019 -2.30825,10.7178 -3.93147,21.02451 -4.88333,30.92842 -2.73007,21.6956 -24.14312,52.82031 -28.48667,54.93856 -3.16615,3.38971 -8.56487,3.43073 -13.8364,3.66251 -11.826041,0.21442 -9.937411,22.61957 -12.920701,33.8787 -2.1447,12.94883 -16.20502,9.36943 -35.09963,-0.91552 -11.66633,-9.0161 -10.25659,-11.96119 -11.80162,-16.2781 -0.28111,-6.53169 -8.85778,-4.00695 -6.10428,-14.65027 1.36548,-3.79968 -7.44125,-10.76793 1.22086,-24.82403 z"
       style="display:inline;opacity:1;fill:#ffffff;fill-opacity:1;stroke:#000000;stroke-width:0.14243329px;stroke-linecap:butt;stroke-linejoin:miter;stroke-opacity:1" />
    <path
       id="path944"
       d="m 93.054909,189.76446 c -6.09761,0.31913 -12.91511,-1.14258 -15.53898,7.76945 -0.20839,-5.62919 1.01629,-10.44999 15.53898,-7.76945 z"
       style="display:inline;opacity:1;fill:#000000;fill-opacity:1;stroke:#000000;stroke-width:0.14243329px;stroke-linecap:butt;stroke-linejoin:miter;stroke-opacity:1" />
    <path
       id="path948"
       d="m 124.78018,168.54226 c -0.11976,-2.11023 2.44769,-7.35569 -0.35959,-6.3307 v -5.25157 c -3.13838,-0.10058 -3.57995,-1.03087 -4.31632,-1.87045 3.33316,-0.1696 6.66636,-0.24305 9.99949,0.71953 -0.92853,1.27037 -2.11854,2.08344 -3.81268,2.01424 l 0.21577,3.02141 c 3.77762,-0.2862 -0.49108,4.6993 -1.72667,7.69754 z"
       style="display:inline;opacity:1;fill:#000000;fill-opacity:1;stroke:#000000;stroke-width:0.14243329px;stroke-linecap:butt;stroke-linejoin:miter;stroke-opacity:1" />
    <path
       id="path950"
       d="m 136.50645,140.84546 c 0.0244,4.05257 1.13652,8.75834 0.0724,12.15778 -0.32398,5.55727 -4.35958,9.25858 -6.54647,13.88435 2.94945,-4.4362 7.67174,-8.16341 8.84853,-13.30881 -0.71831,-4.65092 -0.12261,-16.60046 -2.37398,-12.73332 z"
       style="display:inline;opacity:1;fill:#000000;fill-opacity:1;stroke:#000000;stroke-width:0.14243329px;stroke-linecap:butt;stroke-linejoin:miter;stroke-opacity:1" />
    <path
       id="path952"
       d="m 125.93134,134.08315 c -1.94872,-2.38599 -4.54978,-3.56099 -7.84142,-3.45312 1.97744,-2.0301 3.93128,-2.10386 5.53932,-1.58268 3.0018,2.47678 1.68082,3.40938 2.3021,5.0358 z"
       style="display:inline;opacity:1;fill:#000000;fill-opacity:1;stroke:#000000;stroke-width:0.14243329px;stroke-linecap:butt;stroke-linejoin:miter;stroke-opacity:1" />
    <path
       id="path954"
       d="m 131.83038,136.96072 c 3.69838,0.64464 5.86939,-1.05267 6.69044,-4.81999 -0.84321,-7.7627 -2.77814,-15.88946 -4.74807,-24.02784 1.99524,12.06745 9.6771,29.55785 -1.94237,28.84783 z"
       style="display:inline;opacity:1;fill:#000000;fill-opacity:1;stroke:#000000;stroke-width:0.14243329px;stroke-linecap:butt;stroke-linejoin:miter;stroke-opacity:1" />
    <path
       id="path960"
       d="m 124.72715,83.565831 c 3.10891,0.84468 1.27152,3.52753 -0.63296,2.78695 -7.03643,-2.15124 -8.72893,-2.15912 -20.93546,-3.19395 9.47163,-2.07935 15.20745,-0.53276 21.56842,0.407 z"
       style="display:inline;opacity:1;fill:#000000;fill-opacity:1;stroke:#000000;stroke-width:0.14243329px;stroke-linecap:butt;stroke-linejoin:miter;stroke-opacity:1" />
    <path
       id="path962"
       d="m 155.24426,101.14694 c -2.09596,-2.944609 -6.56817,-3.980679 -9.37662,-5.825249 -2.20126,-1.42169 -3.0078,-3.66202 0.5806,-2.29423 4.04134,1.52693 7.56625,4.1995 9.26617,6.48864 z"
       style="display:inline;opacity:1;fill:#000000;fill-opacity:1;stroke:#000000;stroke-width:0.14243329px;stroke-linecap:butt;stroke-linejoin:miter;stroke-opacity:1" />
    <path
       id="path964"
       d="m 59.674899,113.94005 c -6.66888,0.37102 -6.33698,-4.15865 -5.46741,-9.06432 -5.21651,2.79201 1.40744,14.23549 5.46741,9.06432 z"
       style="display:inline;opacity:1;fill:#000000;fill-opacity:1;stroke:#000000;stroke-width:0.14243329px;stroke-linecap:butt;stroke-linejoin:miter;stroke-opacity:1" />
    <path
       id="path966"
       d="m 92.191629,211.34636 c -2.45074,1.55861 -3.44445,0.68899 -3.59698,-1.58268 3.56783,-2.11229 4.18072,-5.40654 6.04296,-8.20116 -0.75743,3.3337 -0.32331,8.15671 -2.44598,9.78384 z"
       style="display:inline;opacity:1;fill:#000000;fill-opacity:1;stroke:#000000;stroke-width:0.14243329px;stroke-linecap:butt;stroke-linejoin:miter;stroke-opacity:1" />
    <path
       id="path968"
       d="m 145.06733,116.67375 2.24305,1.0463 c 6.68564,-10.62087 -10.27216,-13.49901 -10.37224,-6.51373 l 3.23727,2.01428 z"
       style="display:inline;opacity:1;fill:#ffffff;fill-opacity:1;stroke:#000000;stroke-width:0.14243329px;stroke-linecap:butt;stroke-linejoin:miter;stroke-opacity:1" />
    <path
       id="path972"
       d="m 110.64307,106.29194 c 1.50239,0.38038 3.04556,0.80817 3.7577,0.26669 7.74433,-12.765489 -10.49029,-9.228369 -11.34378,-6.10432 l 2.4435,1.83146 z"
       style="display:inline;opacity:1;fill:#ffffff;fill-opacity:1;stroke:#000000;stroke-width:0.14243329px;stroke-linecap:butt;stroke-linejoin:miter;stroke-opacity:1" />
    <path
       id="path976"
       d="m 153.82444,74.002041 c 21.38324,-5.61879 15.72521,-14.61769 0.40695,-24.8241 -1.75699,-0.70689 -1.73176,-3.95972 -1.62778,-7.32514 -2.64472,1.57397 -5.19443,3.22389 -11.80165,1.62781 -0.10171,-4.47378 -2.34786,-5.55199 -5.69745,-4.88343 -1.27449,-1.24468 -3.12641,-2.23833 1.62797,-6.10428 -1.44147,-0.86458 -6.67149,2.05934 -10.58091,3.66257 -2.79637,-4.45859 -6.07105,-8.37067 -12.61541,-8.54601 -5.29038,0.0392 -10.58074,1.72125 -15.871161,-0.40694 -6.33309,-4.65661 -10.05128,2.26717 -14.65025,5.29038 -10.73331,-6.55359 -6.32261,-1.58455 -5.29037,0.8139 -1.49217,-0.29978 -2.98433,-0.22113 -4.47648,1.62781 -3.32927,-2.68658 -6.40075,-5.72468 -12.61552,-4.47647 1.12791,3.4433 3.97479,6.64103 1.62781,10.58076 -4.24203,-0.78141 -3.26915,-1.79985 -1.62781,-2.84867 -3.11027,-2.03717 -5.28562,-1.03584 -7.32513,0.40695 2.11595,3.33243 7.65987,0.88201 6.91818,5.29037 -1.11501,2.68324 -3.68057,3.9159 -6.10429,5.29039 -2.31354,9.02449 0.90132,15.28484 3.25562,21.97543 -0.81318,-0.74737 1.90071,-2.00443 2.13633,1.52651 -0.30295,-3.47382 -2.83061,-3.92336 3.7643,-11.4964 1.8587,-0.92469 2.3724,-0.69639 2.33998,0 1.08841,0.14689 1.50561,-0.64589 1.93302,-1.42439 0.51106,-1.15376 0.63582,-3.5631 1.62781,-3.15387 1.67855,-0.068 2.75341,-0.86038 3.76431,-1.72952 0.0349,0.74604 0.78656,1.49212 1.3226,2.23823 -0.10335,-0.67828 -0.24905,-1.35652 0.30522,-2.03479 1.34512,0.36122 2.74741,1.12254 3.96777,0.61041 0.79857,-0.80828 1.47097,-0.73333 2.1365,-0.61041 0.25794,0.29498 0.80436,0.44567 0.30522,1.11914 l 1.62781,-1.32258 c 1.43999,-1.45396 2.18082,-0.57731 3.25562,-0.8139 0.0651,2.55691 -0.1317,5.06763 -2.33999,7.22339 -0.38196,1.57066 -1.69007,3.37288 -0.61042,4.57818 0.54261,0.64382 1.0852,0.43248 1.62781,0 -0.16507,-1.06313 -1.97359,-0.8937 0.81391,-4.17125 1.02816,0.28212 1.35936,-0.13276 1.72954,-0.50864 -0.48736,-0.88256 -0.78189,-1.80011 0.20348,-2.95046 l 1.3226,-3.05212 0.20347,-2.64521 c 1.39127,-1.12845 2.59929,-0.24121 3.86605,0 0.53833,-0.12351 1.06056,-0.45575 1.72956,1.11913 1.49206,5e-5 2.3687,0.61564 3.05213,1.42432 0.0296,-0.78724 1.37504,-0.77888 3.153881,-0.50868 0.86759,0.0284 1.76475,-0.004 2.23823,0.81391 0.0602,1.41225 0.74537,1.73074 1.32262,2.23825 0.10753,1.19653 0.74031,2.34056 -0.40698,3.66257 0.81615,-0.79785 1.44393,-0.0893 2.13651,0.10171 1.82484,0.74132 3.3918,-0.0645 5.08693,-0.10171 1.05546,-1.35652 1.13058,-2.71301 1.11912,-4.06952 2.18274,0.33294 5.70065,-0.003 4.88342,1.83126 0.92123,-0.16963 1.80028,-0.59277 2.84853,0 1.79747,1.70379 3.59484,1.51741 5.39225,2.13655 2.54109,-0.42924 5.05143,-0.7046 7.32509,0.20342 1.00044,1.51879 1.67651,2.9913 1.7296,4.37478 2.45257,0.53605 5.56266,0.67763 4.78167,3.15387 l 2.13649,3.35734 c 1.52605,-0.0769 3.05212,-0.0552 4.5782,-0.91566 0.88175,0.014 1.76346,0.93537 2.64522,1.72955 0.81062,-0.44584 1.70507,-0.76581 3.05215,-0.4069 0.58457,1.02712 1.5001,1.06147 2.34012,1.32216 z"
       style="display:inline;opacity:1;fill:#000000;fill-opacity:1;stroke:#000000;stroke-width:0.14243329px;stroke-linecap:butt;stroke-linejoin:miter;stroke-opacity:1" />
    <path
       id="path978"
       d="m 93.258399,190.42576 c -0.40739,1.57666 -0.48273,2.88155 0.59128,3.2461 l 14.192461,-1.8567 c -5.29429,-0.38495 -10.918591,0.42471 -14.783741,-1.3894 z"
       style="display:inline;opacity:1;fill:#000000;fill-opacity:1;stroke:#000000;stroke-width:0.14243329px;stroke-linecap:butt;stroke-linejoin:miter;stroke-opacity:1" />
    <path
       id="path991"
       d="m 47.948749,110.91857 c -0.71527,-4.08557 -1.78983,-10.20237 2.08623,-10.43126 -2.55742,2.30505 -2.0114,7.23955 -2.08623,10.43126 z"
       style="display:inline;opacity:1;fill:#000000;fill-opacity:1;stroke:#000000;stroke-width:0.14243329px;stroke-linecap:butt;stroke-linejoin:miter;stroke-opacity:1" />
    <path
       id="path1023"
       d="m 125.08073,161.14101 c -0.8263,-0.13928 -1.67552,-0.3148 -1.94238,0.43162 -0.6459,-0.98632 -1.80705,-0.94216 -2.80554,-1.22298 -0.53209,-0.26744 -1.07811,-0.489 -1.79861,-0.14391 l -2.15821,-0.43171 c -0.8767,-0.90278 -1.46555,-2.49264 -3.52503,-0.57536 -0.48684,-1.18752 -1.10559,-2.02361 -2.44596,-0.93526 -1.74233,-2.29409 -3.61737,-4.29126 -7.33782,-2.15825 -0.49169,-2.11003 -0.7154,-4.75596 -3.237311,-2.80558 l 4.891931,-6.47457 v 1.51079 c 0.69538,0.10935 1.39083,0.18272 2.08619,-0.64747 0.63511,0.42246 1.28444,0.74476 2.01434,0.50354 -0.0957,1.02505 0.0865,1.84153 1.51073,1.72654 1.1811,-0.20374 1.41608,-1.03834 2.08627,-1.58261 l 0.0719,-1.15108 v 1.29491 c 0.77863,1.36547 1.62363,1.73673 2.44598,2.44594 1.19732,0.37186 2.1038,0.0649 3.02143,-0.21582 1.80937,-0.17218 2.90256,0.7299 4.17249,1.36684 l 2.15817,-0.28773 c 0.144,0 0,0 0.144,0 2.07844,1.22417 3.8033,0.32709 5.61121,-0.0719 l -0.86329,2.87757 -2.23013,2.15821 z"
       style="display:inline;opacity:0.96600001;fill:#000000;fill-opacity:1;stroke:#000000;stroke-width:0.14243329px;stroke-linecap:butt;stroke-linejoin:miter;stroke-opacity:1" />
    <path
       id="path1040"
       d="m 104.7218,146.82501 c 0.64047,-0.1755 1.28095,-0.60324 1.92142,-0.28331 0.62069,-0.34966 1.19342,-0.41179 1.67879,0.0508 0.9485,-1.90325 2.18984,-3.32242 4.88336,-2.34 1.4019,0.25613 2.80951,0.56333 4.14581,0.22894 1.29785,0.72489 2.64354,1.73659 3.81518,1.70408 1.15402,-0.22233 1.67444,0.82237 2.46717,1.32263 0.33558,1.21239 0.0737,2.42477 0.10171,3.63713 l 0.2289,-3.05217 c 2.51649,0.34763 3.71342,2.50954 5.57016,3.76436 -9.14752,-10.07191 -17.24269,-11.39053 -24.8125,-5.03247 z"
       style="display:inline;opacity:1;fill:#000000;fill-opacity:1;stroke:#000000;stroke-width:0.14243329px;stroke-linecap:butt;stroke-linejoin:miter;stroke-opacity:1" />
    <path
       id="path1042"
       d="m 124.42059,162.21156 -0.91413,2.69383 c -0.74511,-0.49197 -1.43808,-0.99705 -2.44184,-1.4243 l -4.12042,0.15259 h -1.27161 c -2.00754,-1.26788 -3.69549,-1.89692 -4.22228,-0.2036 -1.94981,-0.56827 -3.89993,-1.70934 -5.84988,-0.76285 -0.82779,-0.81655 -1.62669,-1.70995 -2.8487,-1.47529 -1.24721,-0.83248 -1.89149,-1.78523 -3.764281,-2.49249 l -0.86475,-3.00138 c -1.74416,11.44171 19.487151,9.17886 25.739701,10.07212 0.52964,-1.48683 0.56141,-2.538 0.55819,-3.55863 z"
       style="display:inline;opacity:1;fill:#000000;fill-opacity:1;stroke:#000000;stroke-width:0.14243329px;stroke-linecap:butt;stroke-linejoin:miter;stroke-opacity:1" />
    <path
       id="path1048"
       d="m 59.962649,122.357 -0.0719,-3.95672 c -1.77471,-0.65591 -2.97025,-2.094 -4.00317,-3.55915 l 4.1851,-1.6441 c 1.14966,-0.0913 1.61411,0.57477 1.47521,1.90761 -0.39324,2.41748 -0.61707,4.8349 -1.5852,7.25236 z"
       style="display:inline;opacity:1;fill:#000000;fill-opacity:1;stroke:#000000;stroke-width:0.14243329px;stroke-linecap:butt;stroke-linejoin:miter;stroke-opacity:1" />
    <path
       id="path1050"
       d="m 56.562859,126.90584 c 3.88319,1.96393 3.99769,-0.21769 4.62891,-1.83095"
       style="display:inline;opacity:1;fill:none;stroke:#000000;stroke-width:0.14243329px;stroke-linecap:butt;stroke-linejoin:miter;stroke-opacity:1" />
    <path
       id="path1052"
       d="m 52.900289,91.500951 c 2.24722,0.56847 2.23038,2.00788 2.02659,3.51894"
       style="display:inline;opacity:1;fill:none;stroke:#000000;stroke-width:0.14243329px;stroke-linecap:butt;stroke-linejoin:miter;stroke-opacity:1" />
    <path
       id="path1398"
       d="m 45.286969,185.44803 c 9.05674,-7.49704 12.81128,-18.88216 10.35929,-34.81876 1.01227,13.04338 8.74979,18.13876 18.12882,21.29413 -26.38305,-9.3457 -9.54447,-2.1456 -28.48811,13.52463 z"
       style="display:inline;opacity:1;fill:#000000;fill-opacity:1;stroke:#000000;stroke-width:0.14243329px;stroke-linecap:butt;stroke-linejoin:miter;stroke-opacity:1" />
    <path
       id="path956"
       d="m 144.06656,115.88696 -4.89191,-3.45311 c 2.63975,-3.38418 6.54271,-2.6201 4.89191,3.45311 z"
       style="display:inline;opacity:1;fill:#000000;fill-opacity:1;stroke:#000000;stroke-width:0.14243329px;stroke-linecap:butt;stroke-linejoin:miter;stroke-opacity:1" />
    <path
       id="path958"
       d="m 110.64307,106.29194 c 3.93214,-6.318939 -1.502,-7.321359 -5.14258,-4.00617 z"
       style="display:inline;opacity:1;fill:#000000;fill-opacity:1;stroke:#000000;stroke-width:0.14243329px;stroke-linecap:butt;stroke-linejoin:miter;stroke-opacity:1" />
  </g>
</svg>
